<svg width="500" height="500" viewBox="0 0 500 500" fill="none" xmlns="http://www.w3.org/2000/svg">
<g clip-path="url(#clip0_944_162225)">
<path d="M1.76663 208.506L34.2852 433.204C36.0431 437.892 37.8009 442.288 39.2667 446.388C52.1573 478.907 84.1867 500 119.049 500C130.18 500 141.021 497.949 151.274 493.556L250.001 452.541L473.624 360.258C489.737 352.934 499.991 337.116 499.991 320.124V249.815C499.991 145.229 419.916 36.3447 322.36 9.39347C298.339 2.94717 274.023 -0.275497 250.001 0.0184492C200.198 0.605364 150.59 15.5458 108.698 43.6689C51.5695 82.046 12.8995 142.884 1.76663 208.506Z" fill="#FE8821"/>
<path d="M1.76659 208.506L34.2852 433.204C36.043 437.892 37.8008 442.288 39.2666 446.388C52.1573 478.907 84.1867 500 119.049 500C130.18 500 141.021 497.949 151.274 493.556L250 452.541V0.0185547C200.198 0.60547 150.59 15.5459 108.697 43.669C51.5694 82.0461 12.8994 142.884 1.76659 208.506Z" fill="#E5741A"/>
<path d="M381.832 324.226C414.146 324.226 440.424 297.949 440.424 265.634C440.424 233.32 414.146 207.042 381.832 207.042C349.517 207.042 323.24 233.32 323.24 265.634C323.24 297.949 349.517 324.226 381.832 324.226Z" fill="#57555C"/>
<path d="M1.76651 208.506L176.76 186.666L206.056 212.284V318.512L176.76 362.455L34.2832 433.205L21.0996 439.944C19.0507 440.822 16.999 441.409 14.6552 441.409C12.0175 441.409 9.38177 440.822 7.03802 439.358C2.64445 436.43 0.00674438 431.741 0.00674438 426.761V219.933C0.594635 216.125 0.887604 212.316 1.76651 208.506Z" fill="#3C3A41"/>
<path d="M176.76 186.535V362.309L240.332 330.669C243.847 328.911 247.071 326.862 250 324.224C259.082 316.021 264.648 304.01 264.648 291.414V225.499C264.648 212.901 259.082 201.182 250 192.98L249.707 192.687C240.332 184.19 227.736 180.383 215.138 181.847L176.76 186.535Z" fill="#57555C"/>
<path d="M176.76 186.535V362.309L240.332 330.669C243.847 328.911 247.071 326.862 250 324.224V192.981L249.708 192.688C240.332 184.191 227.736 180.384 215.138 181.848L176.76 186.535Z" fill="#3C3A41"/>
</g>
<defs>
<clipPath id="clip0_944_162225">
<rect width="500" height="500" fill="white" transform="matrix(-1 0 0 1 500 0)"/>
</clipPath>
</defs>
</svg>
