<svg width="34" height="34" viewBox="0 0 34 34" fill="none" xmlns="http://www.w3.org/2000/svg">
<path d="M29.7372 9.20849H29.75L17.7083 7.66432L15.7037 2.6904C15.0847 0.937987 16.9688 -0.645846 18.5881 0.26507L32.9644 7.4079C34.3442 8.20832 34.3442 10.2016 32.9644 11.0034L18.5881 18.1491C16.9688 19.06 15.0847 17.4762 15.7037 15.7237L17.7083 10.7484L29.7372 9.20565V9.20849ZM3.54167 29.7502H2.125C0.950583 29.7502 0 30.7022 0 31.8752C0 33.0482 0.950583 34.0002 2.125 34.0002H3.54167C4.71608 34.0002 5.66667 33.0482 5.66667 31.8752C5.66667 30.7022 4.71608 29.7502 3.54167 29.7502ZM27.625 21.2502H9.20833C6.47417 21.2502 4.25 19.026 4.25 16.2918C4.25 13.5577 6.47417 11.3335 9.20833 11.3335H10.625C11.7994 11.3335 12.75 10.3815 12.75 9.20849C12.75 8.03549 11.7994 7.08349 10.625 7.08349H9.20833C4.131 7.08349 0 11.2145 0 16.2918C0 21.3692 4.131 25.5002 9.20833 25.5002H27.625C28.7966 25.5002 29.75 26.4536 29.75 27.6252C29.75 28.7967 28.7966 29.7502 27.625 29.7502H19.125C17.9506 29.7502 17 30.7022 17 31.8752C17 33.0482 17.9506 34.0002 19.125 34.0002H27.625C31.1397 34.0002 34 31.1399 34 27.6252C34 24.1104 31.1397 21.2502 27.625 21.2502ZM12.0417 29.7502H10.625C9.45058 29.7502 8.5 30.7022 8.5 31.8752C8.5 33.0482 9.45058 34.0002 10.625 34.0002H12.0417C13.2161 34.0002 14.1667 33.0482 14.1667 31.8752C14.1667 30.7022 13.2161 29.7502 12.0417 29.7502Z" fill="#E28400"/>
</svg>
