<svg width="34" height="29" viewBox="0 0 34 29" fill="none" xmlns="http://www.w3.org/2000/svg">
<path d="M13.2359 16.0023L15.4941 22.2753L13.294 28.3514L9.29617 26.912L13.2359 16.0023ZM31.875 3.52287C31.0037 3.52287 28.5869 3.26504 27.642 2.20254C26.741 1.52679 25.8088 0.829786 24.7477 0.44162C21.6452 -0.423964 20.4822 0.206453 18.8317 0.457203L18.5059 1.36387L20.7641 7.63687L21.9753 4.2737C23.3141 4.19862 23.9346 4.73412 25.0934 5.60254C26.2522 6.49645 27.5159 7.35779 28.9666 7.65245L27.1306 12.7411C26.0157 12.666 25.3796 12.139 24.3355 11.3599C23.4444 10.6926 22.5222 10.0041 21.4753 9.61454L23.8198 16.1255C24.0989 16.2757 24.3837 16.4117 24.6812 16.5208C27.7667 17.4133 28.4637 16.9288 30.1948 16.7659L34 6.17204V3.51862H31.875V3.52287ZM15.1654 0.457203L24.7378 26.9007L20.7428 28.3471L15.3496 13.4495C14.0066 13.346 13.3719 13.8929 12.2102 14.7641C11.3092 15.4385 10.3799 16.1355 9.31883 16.5236C6.22908 17.4175 5.53633 16.933 3.80375 16.7701L0 6.22587V3.52287L2.27375 3.52854C3.96383 3.66595 5.05467 3.36562 6.39625 2.18979C7.28167 1.5197 8.19825 0.826953 9.25225 0.443036C12.3519 -0.42113 13.5192 0.206453 15.1654 0.457203ZM13.8408 9.28587L12.0275 4.27512C10.7213 4.20004 10.0909 4.71429 8.959 5.57987C7.78033 6.4837 6.52942 7.38612 5.02067 7.61704L6.86942 12.744C7.98292 12.6689 8.62042 12.1419 9.6645 11.3627C10.9027 10.4121 12.2556 9.47145 13.8408 9.28587Z" fill="#E28400"/>
</svg>
