<svg width="28" height="34" viewBox="0 0 28 34" fill="none" xmlns="http://www.w3.org/2000/svg">
<path d="M27.0415 11.1797C26.9044 10.8869 26.6867 10.6393 26.4139 10.4659C26.1411 10.2924 25.8245 10.2003 25.5012 10.2005H18.0515L21.9208 2.46001C22.0503 2.20088 22.1115 1.91297 22.0984 1.62358C22.0854 1.3342 21.9986 1.05294 21.8464 0.806506C21.6941 0.560069 21.4814 0.356624 21.2285 0.215474C20.9755 0.0743254 20.6907 0.000154656 20.401 1.44266e-09H10.2005C9.89745 -1.24824e-05 9.59988 0.0809959 9.33863 0.234636C9.07738 0.388276 8.86196 0.608962 8.71466 0.873839L0.214279 16.1745C0.0703685 16.4333 -0.00345264 16.7252 0.000124054 17.0213C0.00370074 17.3174 0.0845513 17.6074 0.234671 17.8626C0.384791 18.1179 0.598974 18.3295 0.856013 18.4765C1.11305 18.6235 1.40403 18.7008 1.70015 18.7008H9.78061L6.84118 31.9325C6.75886 32.3044 6.80382 32.6932 6.96886 33.0365C7.13389 33.3798 7.40944 33.6577 7.7513 33.8257C8.09316 33.9937 8.48153 34.042 8.85414 33.9629C9.22674 33.8838 9.56199 33.6819 9.80611 33.3895L26.8069 12.9886C27.0138 12.7405 27.1458 12.4386 27.1873 12.1183C27.2289 11.7979 27.1783 11.4723 27.0415 11.1797Z" fill="#707070"/>
</svg>
