<svg width="20" height="20" viewBox="0 0 20 20" fill="none" xmlns="http://www.w3.org/2000/svg">
    <g clip-path="url(#clip0_986_61390)">
        <path d="M12.9688 8.64893V13.1893L19.152 16.281C19.5416 16.4758 20 16.1925 20 15.7569V9.52791L12.9688 8.64893Z"
            fill="#E28400" />
        <path
            d="M11.2836 8.4383C10.9182 8.40381 10.625 8.67131 10.625 9.01967V11.6553C10.625 11.879 10.7492 12.0798 10.9489 12.1794L11.7969 12.6034V8.50244L11.2836 8.4383Z"
            fill="#E28400" />
        <path
            d="M9.45312 11.6549V9.01897C9.45312 7.95182 10.3956 7.14155 11.4289 7.27491L19.9144 8.33569C19.4638 5.71159 17.9375 3.27491 15.6489 1.73967C13.1633 0.0722512 10.0229 -0.425561 7.10234 0.376665C3.20793 1.44499 0 5.80092 0 9.99002V12.7961C0 13.4833 0.404531 14.1116 1.04887 14.4046L13.9884 19.7387C15.7128 20.4534 17.7153 19.6427 18.4276 17.8476C18.4896 17.6918 18.5554 17.4974 18.6197 17.3245L10.4247 13.227C9.82929 12.9292 9.45312 12.3206 9.45312 11.6549ZM4.72656 12.9649C3.43394 12.9649 2.38281 11.9138 2.38281 10.6212C2.38281 9.32854 3.43394 8.27741 4.72656 8.27741C6.01918 8.27741 7.07031 9.32854 7.07031 10.6212C7.07031 11.9138 6.01918 12.9649 4.72656 12.9649Z"
            fill="#E28400" />
        <path
            d="M4.72656 9.44995C4.08055 9.44995 3.55469 9.97581 3.55469 10.6218C3.55469 11.2678 4.08055 11.7937 4.72656 11.7937C5.37258 11.7937 5.89844 11.2678 5.89844 10.6218C5.89844 9.97581 5.37258 9.44995 4.72656 9.44995Z"
            fill="#E28400" />
    </g>
    <defs>
        <clipPath id="clip0_986_61390">
            <rect width="20" height="20" fill="white" />
        </clipPath>
    </defs>
</svg>