<svg width="20" height="20" viewBox="0 0 20 20" fill="none" xmlns="http://www.w3.org/2000/svg">
    <path
        d="M18.1642 4.64852L12.3308 0.711856C10.915 -0.243145 9.085 -0.243145 7.66917 0.711856L1.83667 4.64852C0.686667 5.42352 0 6.71436 0 8.10269V15.8327C0 18.1302 1.86917 19.9994 4.16667 19.9994H15.8333C18.1308 19.9994 20 18.1302 20 15.8327V8.10269C20 6.71519 19.3133 5.42352 18.1642 4.64852ZM13.3333 13.3327C13.3333 14.2519 12.5858 14.9994 11.6667 14.9994H8.33333C7.41417 14.9994 6.66667 14.2519 6.66667 13.3327V9.99936C6.66667 9.08019 7.41417 8.33269 8.33333 8.33269H11.6667C12.5858 8.33269 13.3333 9.08019 13.3333 9.99936V13.3327ZM11.6667 9.99936L11.6683 13.3327H8.33333V9.99936H11.6667Z"
        fill="#ABABAB" />
</svg>