<svg width="23" height="23" viewBox="0 0 23 23" fill="none" xmlns="http://www.w3.org/2000/svg">
<g clip-path="url(#clip0_944_162264)">
<path d="M11.5 13.8584C12.8025 13.8584 13.8584 12.8025 13.8584 11.5C13.8584 10.1975 12.8025 9.1416 11.5 9.1416C10.1975 9.1416 9.1416 10.1975 9.1416 11.5C9.1416 12.8025 10.1975 13.8584 11.5 13.8584Z" fill="#E28400"/>
<path d="M11.5 0.269531C5.29759 0.269531 0.269531 5.29759 0.269531 11.5C0.269531 17.7024 5.29759 22.7305 11.5 22.7305C17.7024 22.7305 22.7305 17.7024 22.7305 11.5C22.7305 5.29759 17.7024 0.269531 11.5 0.269531ZM18.4385 14.3543C18.3846 15.422 18.0846 16.4749 17.3065 17.2447C16.5209 18.0219 15.463 18.3115 14.385 18.3648H8.61503C7.5369 18.3115 6.47917 18.0221 5.69353 17.2447C4.9154 16.4749 4.61541 15.422 4.5615 14.3543V8.64566C4.61541 7.57796 4.91544 6.52508 5.69353 5.75521C6.47917 4.97806 7.53704 4.6885 8.61503 4.63517H14.385C15.4631 4.6885 16.5208 4.97793 17.3065 5.75521C18.0846 6.52508 18.3846 7.57796 18.4385 8.64566L18.4385 14.3543Z" fill="#E28400"/>
<path d="M14.3121 5.93565C12.9067 5.8971 10.0937 5.8971 8.68827 5.93565C7.9569 5.95573 7.12778 6.13779 6.60668 6.69438C6.06519 7.27292 5.86057 7.97191 5.83982 8.75386C5.80334 10.1263 5.83982 14.2457 5.83982 14.2457C5.86358 15.0275 6.06519 15.7266 6.60668 16.3051C7.12778 16.8619 7.9569 17.0438 8.68827 17.0639C10.0937 17.1024 12.9067 17.1024 14.3121 17.0639C15.0435 17.0438 15.8726 16.8617 16.3937 16.3051C16.9352 15.7266 17.1398 15.0276 17.1606 14.2457V8.75386C17.1398 7.97191 16.9352 7.27292 16.3937 6.69438C15.8724 6.13761 15.0433 5.95573 14.3121 5.93565ZM11.5 15.1553C10.777 15.1553 10.0703 14.9409 9.46912 14.5392C8.86798 14.1375 8.39944 13.5666 8.12276 12.8987C7.84609 12.2307 7.77369 11.4957 7.91474 10.7866C8.05579 10.0775 8.40395 9.42615 8.91518 8.91492C9.42641 8.40368 10.0778 8.05553 10.7869 7.91448C11.496 7.77343 12.231 7.84582 12.8989 8.1225C13.5669 8.39918 14.1378 8.86772 14.5395 9.46886C14.9411 10.07 15.1555 10.7768 15.1555 11.4998C15.1555 12.4693 14.7704 13.3991 14.0849 14.0846C13.3993 14.7701 12.4695 15.1553 11.5 15.1553ZM15.1711 8.59879C15.0265 8.59876 14.8852 8.55585 14.765 8.47549C14.6447 8.39514 14.5511 8.28094 14.4958 8.14735C14.4405 8.01375 14.426 7.86676 14.4542 7.72495C14.4825 7.58314 14.5521 7.45289 14.6544 7.35066C14.7566 7.24843 14.8869 7.17882 15.0287 7.15062C15.1705 7.12243 15.3175 7.13691 15.4511 7.19226C15.5847 7.2476 15.6988 7.3413 15.7792 7.46153C15.8595 7.58176 15.9024 7.7231 15.9024 7.86769C15.9024 7.96372 15.8834 8.0588 15.8467 8.14751C15.8099 8.23623 15.7561 8.31683 15.6882 8.38472C15.6203 8.45261 15.5396 8.50646 15.4509 8.54319C15.3622 8.57992 15.2671 8.59882 15.1711 8.59879Z" fill="#E28400"/>
</g>
<defs>
<clipPath id="clip0_944_162264">
<rect width="23" height="23" fill="white"/>
</clipPath>
</defs>
</svg>
