<svg width="29" height="34" viewBox="0 0 29 34" fill="none" xmlns="http://www.w3.org/2000/svg">
<path d="M14.1667 0C10.4107 0.00412476 6.80975 1.498 4.15388 4.15388C1.498 6.80975 0.00412476 10.4107 0 14.1667C0 21.6495 11.9 31.9218 13.2515 33.0693L14.1667 33.8428L15.0818 33.0693C16.4333 31.9218 28.3333 21.6495 28.3333 14.1667C28.3292 10.4107 26.8353 6.80975 24.1795 4.15388C21.5236 1.498 17.9226 0.00412476 14.1667 0ZM14.1667 21.25C12.7657 21.25 11.3962 20.8346 10.2314 20.0562C9.06653 19.2779 8.15864 18.1717 7.62252 16.8773C7.0864 15.583 6.94613 14.1588 7.21944 12.7848C7.49275 11.4107 8.16737 10.1486 9.15799 9.15799C10.1486 8.16737 11.4107 7.49275 12.7848 7.21944C14.1588 6.94613 15.583 7.0864 16.8773 7.62252C18.1717 8.15864 19.2779 9.06653 20.0562 10.2314C20.8346 11.3962 21.25 12.7657 21.25 14.1667C21.2478 16.0446 20.5008 17.845 19.1729 19.1729C17.845 20.5008 16.0446 21.2478 14.1667 21.25Z" fill="#E28400"/>
</svg>
