<svg width="34" height="34" viewBox="0 0 34 34" fill="none" xmlns="http://www.w3.org/2000/svg">
<path d="M17 0C13.2441 0.00412476 9.64312 1.498 6.98725 4.15388C4.33138 6.80975 2.8375 10.4107 2.83337 14.1667C2.83337 21.6495 14.7334 31.9218 16.0849 33.0693L17 33.8428L17.9152 33.0693C19.2667 31.9218 31.1667 21.6495 31.1667 14.1667C31.1626 10.4107 29.6687 6.80975 27.0128 4.15388C24.357 1.498 20.756 0.00412476 17 0ZM17 21.25C15.5991 21.25 14.2296 20.8346 13.0648 20.0562C11.8999 19.2779 10.992 18.1717 10.4559 16.8773C9.91977 15.583 9.7795 14.1588 10.0528 12.7848C10.3261 11.4107 11.0007 10.1486 11.9914 9.15799C12.982 8.16737 14.2441 7.49275 15.6182 7.21944C16.9922 6.94613 18.4164 7.0864 19.7107 7.62252C21.005 8.15864 22.1113 9.06653 22.8896 10.2314C23.6679 11.3962 24.0834 12.7657 24.0834 14.1667C24.0811 16.0446 23.3341 17.845 22.0062 19.1729C20.6783 20.5008 18.878 21.2478 17 21.25Z" fill="#E28400"/>
<path d="M17 18.4165C19.3472 18.4165 21.25 16.5137 21.25 14.1665C21.25 11.8193 19.3472 9.9165 17 9.9165C14.6528 9.9165 12.75 11.8193 12.75 14.1665C12.75 16.5137 14.6528 18.4165 17 18.4165Z" fill="#E28400"/>
</svg>
