<svg width="16" height="20" viewBox="0 0 16 20" fill="none" xmlns="http://www.w3.org/2000/svg">
    <path
        d="M15.9068 6.57629C15.8261 6.40407 15.6981 6.25841 15.5376 6.15638C15.3771 6.05436 15.1909 6.0002 15.0007 6.00027H10.6185L12.8946 1.44706C12.9708 1.29464 13.0067 1.12527 12.9991 0.955049C12.9914 0.784822 12.9404 0.619379 12.8508 0.474415C12.7612 0.329452 12.6361 0.209779 12.4873 0.12675C12.3385 0.0437208 12.171 9.09743e-05 12.0006 8.48626e-10H6.00031C5.82203 -7.34261e-06 5.64699 0.0476446 5.49331 0.138021C5.33964 0.228398 5.21292 0.358213 5.12627 0.514023L0.126047 9.51442C0.0413932 9.66665 -0.00203096 9.83835 7.29731e-05 10.0125C0.00217691 10.1867 0.0497361 10.3573 0.138042 10.5074C0.226348 10.6576 0.352338 10.7821 0.503537 10.8685C0.654737 10.955 0.825902 11.0005 1.00009 11.0005H5.7533L4.02422 18.7838C3.9758 19.0026 4.00225 19.2313 4.09933 19.4332C4.19641 19.6352 4.35849 19.7987 4.55959 19.8975C4.76068 19.9963 4.98914 20.0247 5.20832 19.9782C5.4275 19.9317 5.6247 19.8129 5.7683 19.6409L15.7687 7.64034C15.8905 7.49442 15.9681 7.31684 15.9925 7.12839C16.017 6.93995 15.9872 6.74844 15.9068 6.57629Z"
        fill="#E28400" />
</svg>