<svg width="23" height="23" viewBox="0 0 23 23" fill="none" xmlns="http://www.w3.org/2000/svg">
<path d="M13.6668 0.170242L12.9768 0.0733993C10.9031 -0.226015 8.78702 0.0701978 6.87523 0.927505C4.96343 1.78481 3.33471 3.16789 2.17895 4.9155C0.949241 6.58601 0.216182 8.56977 0.0641328 10.6385C-0.0879166 12.7072 0.347222 14.7768 1.31947 16.6092C1.41898 16.7928 1.48092 16.9944 1.50171 17.2023C1.52249 17.4101 1.50169 17.62 1.44053 17.8197C0.944211 19.5266 0.484211 21.2455 0 23.0492L0.605263 22.8676C2.23947 22.4318 3.87368 21.996 5.50789 21.5966C5.85282 21.5248 6.21135 21.5586 6.53684 21.6934C8.00303 22.409 9.60531 22.8026 11.2362 22.848C12.867 22.8933 14.4887 22.5893 15.9924 21.9564C17.4961 21.3234 18.847 20.3761 19.9544 19.1781C21.0619 17.98 21.9003 16.559 22.4133 15.0103C22.9264 13.4615 23.1022 11.821 22.929 10.1987C22.7559 8.57647 22.2377 7.01001 21.4093 5.60448C20.5809 4.19896 19.4615 2.98689 18.1261 2.04961C16.7907 1.11234 15.2703 0.471547 13.6668 0.170242ZM16.7174 16.0523C16.2774 16.4462 15.7409 16.7165 15.1625 16.8356C14.5841 16.9547 13.9845 16.9183 13.4247 16.7302C10.8882 16.016 8.68748 14.4245 7.21474 12.2392C6.65219 11.4663 6.19995 10.6189 5.87105 9.72129C5.69293 9.20049 5.66081 8.64086 5.77817 8.1031C5.89554 7.56534 6.15792 7.06999 6.53684 6.67077C6.72131 6.43534 6.9724 6.26092 7.25741 6.17024C7.54243 6.07955 7.84814 6.0768 8.13474 6.16235C8.37684 6.22287 8.54632 6.57393 8.76421 6.84024C8.94095 7.34019 9.14795 7.82924 9.38158 8.30498C9.55883 8.5477 9.63286 8.85068 9.5875 9.14779C9.54214 9.4449 9.38107 9.712 9.13947 9.89077C8.59474 10.375 8.67947 10.7745 9.06684 11.3192C9.92323 12.5529 11.1049 13.5251 12.4805 14.1276C12.8679 14.2971 13.1584 14.3334 13.4126 13.9339C13.5216 13.7766 13.6668 13.6434 13.7879 13.4981C14.49 12.6145 14.2721 12.6266 15.3858 13.1108C15.7405 13.2597 16.0843 13.434 16.4147 13.6313C16.7416 13.825 17.2379 14.0308 17.3105 14.3213C17.3804 14.6365 17.362 14.9648 17.2574 15.2702C17.1527 15.5756 16.9659 15.8463 16.7174 16.0523Z" fill="#E28400"/>
</svg>
